<svg viewBox="0 0 720 320" xmlns="http://www.w3.org/2000/svg" font-family="sans-serif">
  <line x1="70" y1="165" x2="650" y2="165" stroke="#28303F" stroke-width="1" stroke-dasharray="3 4"/>
  <circle cx="176.2" cy="199.5" r="2.5" fill="#D2793F" opacity="0.26"/><circle cx="471.1" cy="145.7" r="2.1" fill="#D2793F" opacity="0.49"/><circle cx="166.3" cy="208.2" r="1.6" fill="#D2793F" opacity="0.48"/><circle cx="353.4" cy="181.4" r="1.6" fill="#D2793F" opacity="0.36"/><circle cx="301.4" cy="121.8" r="1.4" fill="#D2793F" opacity="0.29"/><circle cx="408.2" cy="203.4" r="2.8" fill="#D2793F" opacity="0.47"/><circle cx="613.1" cy="232.5" r="2.1" fill="#D2793F" opacity="0.33"/><circle cx="300.4" cy="111.1" r="1.4" fill="#D2793F" opacity="0.43"/><circle cx="212.7" cy="198.5" r="2.1" fill="#D2793F" opacity="0.40"/><circle cx="322.9" cy="183.0" r="2.4" fill="#D2793F" opacity="0.21"/><circle cx="76.6" cy="198.5" r="2.2" fill="#D2793F" opacity="0.45"/><circle cx="311.2" cy="108.4" r="1.3" fill="#D2793F" opacity="0.16"/><circle cx="417.2" cy="250.2" r="1.4" fill="#D2793F" opacity="0.19"/><circle cx="287.4" cy="157.8" r="2.3" fill="#D2793F" opacity="0.46"/><circle cx="282.1" cy="168.5" r="2.3" fill="#D2793F" opacity="0.15"/><circle cx="293.2" cy="97.1" r="2.0" fill="#D2793F" opacity="0.17"/><circle cx="391.4" cy="103.8" r="2.9" fill="#D2793F" opacity="0.27"/><circle cx="450.6" cy="206.3" r="1.7" fill="#D2793F" opacity="0.46"/><circle cx="502.6" cy="86.3" r="2.7" fill="#D2793F" opacity="0.47"/><circle cx="144.3" cy="123.0" r="1.6" fill="#D2793F" opacity="0.29"/><circle cx="468.8" cy="100.4" r="2.2" fill="#D2793F" opacity="0.42"/><circle cx="110.9" cy="143.5" r="1.4" fill="#D2793F" opacity="0.24"/><circle cx="488.9" cy="88.9" r="2.0" fill="#D2793F" opacity="0.25"/><circle cx="550.3" cy="144.3" r="1.4" fill="#D2793F" opacity="0.24"/><circle cx="82.3" cy="128.0" r="1.5" fill="#D2793F" opacity="0.49"/><circle cx="193.5" cy="242.1" r="2.3" fill="#D2793F" opacity="0.26"/><circle cx="290.0" cy="95.5" r="2.0" fill="#D2793F" opacity="0.16"/><circle cx="199.9" cy="187.1" r="1.8" fill="#D2793F" opacity="0.24"/><circle cx="464.0" cy="159.0" r="1.8" fill="#D2793F" opacity="0.28"/><circle cx="484.5" cy="111.6" r="2.3" fill="#D2793F" opacity="0.21"/><circle cx="174.8" cy="180.3" r="2.5" fill="#D2793F" opacity="0.46"/><circle cx="522.3" cy="155.8" r="1.5" fill="#D2793F" opacity="0.46"/><circle cx="473.4" cy="189.6" r="2.5" fill="#D2793F" opacity="0.28"/><circle cx="269.1" cy="245.1" r="2.1" fill="#D2793F" opacity="0.40"/><circle cx="612.9" cy="224.5" r="2.0" fill="#D2793F" opacity="0.28"/><circle cx="607.6" cy="192.0" r="2.7" fill="#D2793F" opacity="0.18"/><circle cx="331.6" cy="137.8" r="2.7" fill="#D2793F" opacity="0.46"/><circle cx="158.5" cy="125.3" r="2.4" fill="#D2793F" opacity="0.20"/><circle cx="553.5" cy="128.2" r="2.9" fill="#D2793F" opacity="0.22"/><circle cx="374.5" cy="200.6" r="2.4" fill="#D2793F" opacity="0.36"/><circle cx="367.2" cy="230.7" r="2.2" fill="#D2793F" opacity="0.28"/><circle cx="586.7" cy="248.9" r="2.1" fill="#D2793F" opacity="0.24"/><circle cx="217.2" cy="271.0" r="1.8" fill="#D2793F" opacity="0.45"/><circle cx="415.0" cy="139.9" r="1.6" fill="#D2793F" opacity="0.48"/><circle cx="518.0" cy="178.9" r="2.5" fill="#D2793F" opacity="0.40"/><circle cx="330.1" cy="139.0" r="1.7" fill="#D2793F" opacity="0.16"/><circle cx="462.4" cy="221.0" r="2.8" fill="#D2793F" opacity="0.24"/><circle cx="544.4" cy="102.0" r="2.8" fill="#D2793F" opacity="0.49"/><circle cx="162.3" cy="172.3" r="1.7" fill="#D2793F" opacity="0.28"/><circle cx="136.9" cy="118.9" r="1.3" fill="#D2793F" opacity="0.48"/><circle cx="279.4" cy="143.7" r="2.1" fill="#D2793F" opacity="0.41"/><circle cx="537.6" cy="138.1" r="2.2" fill="#D2793F" opacity="0.18"/><circle cx="235.6" cy="138.6" r="1.8" fill="#D2793F" opacity="0.26"/><circle cx="403.5" cy="266.4" r="1.9" fill="#D2793F" opacity="0.44"/><circle cx="77.0" cy="157.4" r="1.4" fill="#D2793F" opacity="0.45"/><circle cx="437.6" cy="151.1" r="2.9" fill="#D2793F" opacity="0.23"/><circle cx="603.6" cy="286.7" r="2.2" fill="#D2793F" opacity="0.39"/><circle cx="532.4" cy="181.2" r="2.1" fill="#D2793F" opacity="0.17"/><circle cx="237.0" cy="220.4" r="2.8" fill="#D2793F" opacity="0.35"/><circle cx="526.2" cy="145.8" r="1.9" fill="#D2793F" opacity="0.49"/><path d="M70.0,158.9 L72.2,153.1 L74.5,151.5 L76.7,153.1 L79.0,153.6 L81.2,150.7 L83.4,146.1 L85.7,142.6 L87.9,140.8 L90.2,138.1 L92.4,133.4 L94.6,129.4 L96.9,127.9 L99.1,127.5 L101.4,125.8 L103.6,122.9 L105.8,120.9 L108.1,121.0 L110.3,122.1 L112.5,124.3 L114.8,127.6 L117.0,129.7 L119.3,130.7 L121.5,133.0 L123.7,135.8 L126.0,136.7 L128.2,136.9 L130.5,137.2 L132.7,135.5 L134.9,131.7 L137.2,129.7 L139.4,131.2 L141.7,133.4 L143.9,133.9 L146.1,134.5 L148.4,135.9 L150.6,137.9 L152.9,141.7 L155.1,147.5 L157.3,152.2 L159.6,154.1 L161.8,156.0 L164.1,161.4 L166.3,169.9 L168.5,177.9 L170.8,183.0 L173.0,184.3 L175.3,182.6 L177.5,180.5 L179.7,179.1 L182.0,178.1 L184.2,178.9 L186.4,182.2 L188.7,187.1 L190.9,192.8 L193.2,197.7 L195.4,201.1 L197.6,204.5 L199.9,207.7 L202.1,208.2 L204.4,206.8 L206.6,206.5 L208.8,207.7 L211.1,209.0 L213.3,209.8 L215.6,209.7 L217.8,208.4 L220.0,206.8 L222.3,205.3 L224.5,203.1 L226.8,200.3 L229.0,198.1 L231.2,195.8 L233.5,191.8 L235.7,188.4 L238.0,188.5 L240.2,190.2 L242.4,189.7 L244.7,188.2 L246.9,187.3 L249.2,185.6 L251.4,182.3 L253.6,178.3 L255.9,174.3 L258.1,172.8 L260.3,174.0 L262.6,173.3 L264.8,167.2 L267.1,156.8 L269.3,148.2 L271.5,146.6 L273.8,148.9 L276.0,146.9 L278.3,139.7 L280.5,134.1 L282.7,133.6 L285.0,134.8 L287.2,134.6 L289.5,133.5 L291.7,132.3 L293.9,130.1 L296.2,126.9 L298.4,124.9 L300.7,125.7 L302.9,127.7 L305.1,127.9 L307.4,124.8 L309.6,121.9 L311.9,121.4 L314.1,120.2 L316.3,115.6 L318.6,111.3 L320.8,112.2 L323.1,118.6 L325.3,125.0 L327.5,125.4 L329.8,121.4 L332.0,121.3 L334.2,127.7 L336.5,135.0 L338.7,139.8 L341.0,143.3 L343.2,145.7 L345.4,146.0 L347.7,145.0 L349.9,145.2 L352.2,147.9 L354.4,153.4 L356.6,161.2 L358.9,170.6 L361.1,178.2 L363.4,180.2 L365.6,178.1 L367.8,175.7 L370.1,174.1 L372.3,172.8 L374.6,173.2 L376.8,176.5 L379.0,183.2 L381.3,192.1 L383.5,200.3 L385.8,206.1 L388.0,209.5 L390.2,211.0 L392.5,210.4 L394.7,209.4 L396.9,210.6 L399.2,214.2 L401.4,215.9 L403.7,212.8 L405.9,207.2 L408.1,204.1 L410.4,205.1 L412.6,206.5 L414.9,203.2 L417.1,195.9 L419.3,189.3 L421.6,186.6 L423.8,188.8 L426.1,193.0 L428.3,194.5 L430.5,192.4 L432.8,189.7 L435.0,188.4 L437.3,189.2 L439.5,191.2 L441.7,192.2 L444.0,190.1 L446.2,185.4 L448.5,179.5 L450.7,172.9 L452.9,166.2 L455.2,161.0 L457.4,158.4 L459.7,157.5 L461.9,157.2 L464.1,156.4 L466.4,154.1 L468.6,150.1 L470.8,145.4 L473.1,142.0 L475.3,140.4 L477.6,139.4 L479.8,138.3 L482.0,137.6 L484.3,136.6 L486.5,134.4 L488.8,131.8 L491.0,130.5 L493.2,130.7 L495.5,129.9 L497.7,126.1 L500.0,122.5 L502.2,122.8 L504.4,125.8 L506.7,127.1 L508.9,125.7 L511.2,124.0 L513.4,123.9 L515.6,124.7 L517.9,126.4 L520.1,127.5 L522.4,126.2 L524.6,124.2 L526.8,124.3 L529.1,126.3 L531.3,129.2 L533.6,133.2 L535.8,137.6 L538.0,141.9 L540.3,146.2 L542.5,150.4 L544.7,154.7 L547.0,158.8 L549.2,160.3 L551.5,158.1 L553.7,156.7 L555.9,160.1 L558.2,166.8 L560.4,173.4 L562.7,179.3 L564.9,185.4 L567.1,192.2 L569.4,197.8 L571.6,201.3 L573.9,204.5 L576.1,208.9 L578.3,212.7 L580.6,212.5 L582.8,207.1 L585.1,199.6 L587.3,195.7 L589.5,197.4 L591.8,203.2 L594.0,210.2 L596.3,214.3 L598.5,213.2 L600.7,210.3 L603.0,208.6 L605.2,208.4 L607.5,210.5 L609.7,214.1 L611.9,215.5 L614.2,212.7 L616.4,207.1 L618.6,200.0 L620.9,193.0 L623.1,189.0 L625.4,187.4 L627.6,185.2 L629.8,181.8 L632.1,179.0 L634.3,177.4 L636.6,174.6 L638.8,169.5 L641.0,165.1 L643.3,164.3 L645.5,164.2 L647.8,161.5 L650.0,158.3" fill="none" stroke="#D2793F" stroke-width="1.5" opacity="0.88"/>
  <path d="M70.0,165.0 L72.2,161.8 L74.5,158.6 L76.7,155.5 L79.0,152.4 L81.2,149.3 L83.4,146.4 L85.7,143.5 L87.9,140.8 L90.2,138.2 L92.4,135.7 L94.6,133.4 L96.9,131.3 L99.1,129.3 L101.4,127.5 L103.6,126.0 L105.8,124.6 L108.1,123.4 L110.3,122.5 L112.5,121.8 L114.8,121.3 L117.0,121.0 L119.3,121.0 L121.5,121.2 L123.7,121.7 L126.0,122.4 L128.2,123.3 L130.5,124.4 L132.7,125.7 L134.9,127.3 L137.2,129.0 L139.4,130.9 L141.7,133.0 L143.9,135.3 L146.1,137.8 L148.4,140.4 L150.6,143.1 L152.9,145.9 L155.1,148.8 L157.3,151.9 L159.6,154.9 L161.8,158.1 L164.1,161.3 L166.3,164.5 L168.5,167.7 L170.8,170.9 L173.0,174.0 L175.3,177.1 L177.5,180.2 L179.7,183.1 L182.0,186.0 L184.2,188.7 L186.4,191.4 L188.7,193.9 L190.9,196.2 L193.2,198.4 L195.4,200.4 L197.6,202.2 L199.9,203.8 L202.1,205.2 L204.4,206.4 L206.6,207.4 L208.8,208.1 L211.1,208.6 L213.3,208.9 L215.6,209.0 L217.8,208.8 L220.0,208.4 L222.3,207.8 L224.5,206.9 L226.8,205.8 L229.0,204.5 L231.2,203.0 L233.5,201.3 L235.7,199.4 L238.0,197.3 L240.2,195.1 L242.4,192.6 L244.7,190.1 L246.9,187.4 L249.2,184.6 L251.4,181.7 L253.6,178.6 L255.9,175.6 L258.1,172.4 L260.3,169.3 L262.6,166.1 L264.8,162.9 L267.1,159.7 L269.3,156.5 L271.5,153.4 L273.8,150.3 L276.0,147.4 L278.3,144.5 L280.5,141.7 L282.7,139.1 L285.0,136.5 L287.2,134.2 L289.5,132.0 L291.7,129.9 L293.9,128.1 L296.2,126.5 L298.4,125.0 L300.7,123.8 L302.9,122.8 L305.1,122.0 L307.4,121.4 L309.6,121.1 L311.9,121.0 L314.1,121.1 L316.3,121.5 L318.6,122.1 L320.8,122.9 L323.1,124.0 L325.3,125.2 L327.5,126.7 L329.8,128.4 L332.0,130.3 L334.2,132.3 L336.5,134.6 L338.7,136.9 L341.0,139.5 L343.2,142.2 L345.4,145.0 L347.7,147.9 L349.9,150.8 L352.2,153.9 L354.4,157.0 L356.6,160.2 L358.9,163.4 L361.1,166.6 L363.4,169.8 L365.6,173.0 L367.8,176.1 L370.1,179.2 L372.3,182.1 L374.6,185.0 L376.8,187.8 L379.0,190.5 L381.3,193.1 L383.5,195.4 L385.8,197.7 L388.0,199.7 L390.2,201.6 L392.5,203.3 L394.7,204.8 L396.9,206.0 L399.2,207.1 L401.4,207.9 L403.7,208.5 L405.9,208.9 L408.1,209.0 L410.4,208.9 L412.6,208.6 L414.9,208.0 L417.1,207.2 L419.3,206.2 L421.6,205.0 L423.8,203.5 L426.1,201.9 L428.3,200.1 L430.5,198.0 L432.8,195.8 L435.0,193.5 L437.3,190.9 L439.5,188.3 L441.7,185.5 L444.0,182.6 L446.2,179.7 L448.5,176.6 L450.7,173.5 L452.9,170.3 L455.2,167.1 L457.4,163.9 L459.7,160.7 L461.9,157.6 L464.1,154.4 L466.4,151.4 L468.6,148.3 L470.8,145.4 L473.1,142.6 L475.3,139.9 L477.6,137.4 L479.8,134.9 L482.0,132.7 L484.3,130.6 L486.5,128.7 L488.8,127.0 L491.0,125.5 L493.2,124.2 L495.5,123.1 L497.7,122.2 L500.0,121.6 L502.2,121.2 L504.4,121.0 L506.7,121.1 L508.9,121.4 L511.2,121.9 L513.4,122.6 L515.6,123.6 L517.9,124.8 L520.1,126.2 L522.4,127.8 L524.6,129.6 L526.8,131.6 L529.1,133.8 L531.3,136.1 L533.6,138.6 L535.8,141.3 L538.0,144.0 L540.3,146.9 L542.5,149.8 L544.7,152.9 L547.0,156.0 L549.2,159.1 L551.5,162.3 L553.7,165.5 L555.9,168.7 L558.2,171.9 L560.4,175.1 L562.7,178.1 L564.9,181.2 L567.1,184.1 L569.4,186.9 L571.6,189.6 L573.9,192.2 L576.1,194.7 L578.3,197.0 L580.6,199.1 L582.8,201.0 L585.1,202.7 L587.3,204.3 L589.5,205.6 L591.8,206.7 L594.0,207.6 L596.3,208.3 L598.5,208.8 L600.7,209.0 L603.0,209.0 L605.2,208.7 L607.5,208.2 L609.7,207.5 L611.9,206.6 L614.2,205.4 L616.4,204.0 L618.6,202.5 L620.9,200.7 L623.1,198.7 L625.4,196.6 L627.6,194.3 L629.8,191.8 L632.1,189.2 L634.3,186.5 L636.6,183.6 L638.8,180.7 L641.0,177.6 L643.3,174.5 L645.5,171.4 L647.8,168.2 L650.0,165.0" fill="none" stroke="#6E9BCB" stroke-width="2.6"/>
  <text x="70" y="34" fill="#6E9BCB" font-size="15" font-weight="700">Coherent response</text>
  <text x="70" y="53" fill="#98A2B3" font-size="12.5">the mean field — reveals the pathways</text>
  <text x="650" y="34" fill="#D2793F" font-size="15" font-weight="700" text-anchor="end">Fluctuations</text>
  <text x="650" y="53" fill="#98A2B3" font-size="12.5" text-anchor="end">event to event — determine the pathways</text>
</svg>