<svg viewBox="0 0 720 300" xmlns="http://www.w3.org/2000/svg" font-family="'Source Sans 3',sans-serif">
  <line x1="70" y1="150" x2="650" y2="150" stroke="#28303F" stroke-width="1" stroke-dasharray="3 4"/>
  <circle cx="451.2" cy="112.5" r="2.0" fill="#D2793F" opacity="0.20"/><circle cx="454.2" cy="98.5" r="2.0" fill="#D2793F" opacity="0.30"/><circle cx="382.9" cy="233.2" r="1.8" fill="#D2793F" opacity="0.28"/><circle cx="335.3" cy="105.4" r="2.7" fill="#D2793F" opacity="0.38"/><circle cx="243.8" cy="124.0" r="2.8" fill="#D2793F" opacity="0.20"/><circle cx="147.3" cy="137.1" r="1.5" fill="#D2793F" opacity="0.51"/><circle cx="226.2" cy="200.4" r="2.9" fill="#D2793F" opacity="0.40"/><circle cx="178.5" cy="202.2" r="3.0" fill="#D2793F" opacity="0.30"/><circle cx="482.3" cy="74.0" r="2.7" fill="#D2793F" opacity="0.46"/><circle cx="548.9" cy="159.6" r="2.0" fill="#D2793F" opacity="0.18"/><circle cx="370.9" cy="169.9" r="1.7" fill="#D2793F" opacity="0.26"/><circle cx="380.9" cy="141.3" r="3.0" fill="#D2793F" opacity="0.20"/><circle cx="176.9" cy="180.2" r="2.5" fill="#D2793F" opacity="0.44"/><circle cx="648.1" cy="97.5" r="2.9" fill="#D2793F" opacity="0.46"/><circle cx="299.1" cy="117.5" r="1.7" fill="#D2793F" opacity="0.45"/><circle cx="509.5" cy="94.1" r="2.1" fill="#D2793F" opacity="0.30"/><circle cx="313.5" cy="146.4" r="2.9" fill="#D2793F" opacity="0.37"/><circle cx="294.8" cy="133.7" r="2.7" fill="#D2793F" opacity="0.30"/><circle cx="551.8" cy="183.5" r="2.0" fill="#D2793F" opacity="0.21"/><circle cx="511.0" cy="185.4" r="1.6" fill="#D2793F" opacity="0.44"/><circle cx="548.7" cy="192.8" r="1.5" fill="#D2793F" opacity="0.19"/><circle cx="643.0" cy="136.7" r="2.4" fill="#D2793F" opacity="0.33"/><circle cx="505.2" cy="163.5" r="3.0" fill="#D2793F" opacity="0.24"/><circle cx="516.1" cy="149.5" r="2.2" fill="#D2793F" opacity="0.16"/><circle cx="252.0" cy="181.4" r="2.7" fill="#D2793F" opacity="0.33"/><circle cx="102.9" cy="81.8" r="3.0" fill="#D2793F" opacity="0.52"/><circle cx="213.0" cy="181.3" r="1.7" fill="#D2793F" opacity="0.20"/><circle cx="89.2" cy="132.5" r="1.5" fill="#D2793F" opacity="0.22"/><circle cx="569.1" cy="201.2" r="1.6" fill="#D2793F" opacity="0.42"/><circle cx="224.2" cy="165.1" r="1.8" fill="#D2793F" opacity="0.36"/><circle cx="434.5" cy="142.1" r="2.1" fill="#D2793F" opacity="0.47"/><circle cx="576.6" cy="158.2" r="1.6" fill="#D2793F" opacity="0.20"/><circle cx="638.2" cy="186.6" r="1.7" fill="#D2793F" opacity="0.54"/><circle cx="190.5" cy="177.1" r="2.2" fill="#D2793F" opacity="0.52"/><circle cx="93.5" cy="112.3" r="2.4" fill="#D2793F" opacity="0.18"/><circle cx="207.2" cy="210.3" r="3.0" fill="#D2793F" opacity="0.45"/><circle cx="550.8" cy="168.2" r="2.6" fill="#D2793F" opacity="0.49"/><circle cx="465.3" cy="94.6" r="1.9" fill="#D2793F" opacity="0.22"/><circle cx="508.8" cy="148.7" r="3.0" fill="#D2793F" opacity="0.39"/><circle cx="261.1" cy="118.2" r="1.6" fill="#D2793F" opacity="0.36"/><circle cx="123.1" cy="174.8" r="2.4" fill="#D2793F" opacity="0.47"/><circle cx="233.5" cy="176.1" r="2.6" fill="#D2793F" opacity="0.41"/><circle cx="621.3" cy="170.1" r="2.1" fill="#D2793F" opacity="0.43"/><circle cx="554.3" cy="134.2" r="2.6" fill="#D2793F" opacity="0.23"/><circle cx="390.0" cy="184.8" r="1.4" fill="#D2793F" opacity="0.44"/><circle cx="79.0" cy="95.9" r="2.2" fill="#D2793F" opacity="0.31"/><circle cx="487.9" cy="136.3" r="2.7" fill="#D2793F" opacity="0.18"/><circle cx="396.4" cy="165.3" r="3.1" fill="#D2793F" opacity="0.17"/><circle cx="332.6" cy="143.1" r="2.3" fill="#D2793F" opacity="0.18"/><circle cx="414.1" cy="195.5" r="1.7" fill="#D2793F" opacity="0.50"/><circle cx="184.7" cy="213.9" r="2.7" fill="#D2793F" opacity="0.43"/><circle cx="391.0" cy="151.4" r="2.2" fill="#D2793F" opacity="0.40"/><circle cx="545.0" cy="156.9" r="2.5" fill="#D2793F" opacity="0.31"/><circle cx="393.8" cy="180.2" r="2.7" fill="#D2793F" opacity="0.30"/><circle cx="340.6" cy="151.8" r="2.3" fill="#D2793F" opacity="0.29"/><circle cx="549.6" cy="172.1" r="2.9" fill="#D2793F" opacity="0.46"/><circle cx="329.4" cy="191.3" r="1.4" fill="#D2793F" opacity="0.31"/><circle cx="569.0" cy="220.6" r="2.4" fill="#D2793F" opacity="0.42"/><circle cx="463.0" cy="116.0" r="2.1" fill="#D2793F" opacity="0.22"/><circle cx="239.7" cy="182.2" r="2.1" fill="#D2793F" opacity="0.55"/><circle cx="274.5" cy="166.1" r="2.0" fill="#D2793F" opacity="0.38"/><circle cx="619.8" cy="137.5" r="2.0" fill="#D2793F" opacity="0.26"/><circle cx="583.0" cy="117.8" r="2.6" fill="#D2793F" opacity="0.18"/><circle cx="572.6" cy="212.8" r="2.2" fill="#D2793F" opacity="0.23"/><circle cx="313.7" cy="104.4" r="2.9" fill="#D2793F" opacity="0.34"/><circle cx="515.4" cy="102.7" r="2.0" fill="#D2793F" opacity="0.37"/><circle cx="186.8" cy="140.6" r="2.6" fill="#D2793F" opacity="0.46"/><circle cx="102.9" cy="154.3" r="2.9" fill="#D2793F" opacity="0.33"/><circle cx="106.2" cy="150.1" r="1.8" fill="#D2793F" opacity="0.41"/><circle cx="288.4" cy="127.1" r="1.8" fill="#D2793F" opacity="0.34"/>
  <path d="M70.0,150.0 L72.4,146.1 L74.9,142.3 L77.3,138.5 L79.7,134.8 L82.1,131.2 L84.6,127.8 L87.0,124.5 L89.4,121.3 L91.8,118.4 L94.3,115.7 L96.7,113.3 L99.1,111.1 L101.5,109.1 L104.0,107.5 L106.4,106.2 L108.8,105.2 L111.3,104.5 L113.7,104.1 L116.1,104.0 L118.5,104.3 L121.0,104.9 L123.4,105.8 L125.8,107.0 L128.2,108.5 L130.7,110.4 L133.1,112.5 L135.5,114.8 L137.9,117.5 L140.4,120.3 L142.8,123.4 L145.2,126.6 L147.7,130.0 L150.1,133.6 L152.5,137.2 L154.9,141.0 L157.4,144.8 L159.8,148.7 L162.2,152.5 L164.6,156.4 L167.1,160.2 L169.5,163.9 L171.9,167.6 L174.4,171.1 L176.8,174.4 L179.2,177.6 L181.6,180.6 L184.1,183.4 L186.5,185.9 L188.9,188.2 L191.3,190.2 L193.8,192.0 L196.2,193.4 L198.6,194.5 L201.0,195.3 L203.5,195.8 L205.9,196.0 L208.3,195.8 L210.8,195.4 L213.2,194.6 L215.6,193.4 L218.0,192.0 L220.5,190.3 L222.9,188.3 L225.3,186.0 L227.7,183.5 L230.2,180.7 L232.6,177.7 L235.0,174.5 L237.4,171.2 L239.9,167.7 L242.3,164.0 L244.7,160.3 L247.2,156.5 L249.6,152.7 L252.0,148.8 L254.4,144.9 L256.9,141.1 L259.3,137.3 L261.7,133.7 L264.1,130.1 L266.6,126.7 L269.0,123.5 L271.4,120.4 L273.8,117.5 L276.3,114.9 L278.7,112.5 L281.1,110.4 L283.6,108.6 L286.0,107.1 L288.4,105.8 L290.8,104.9 L293.3,104.3 L295.7,104.0 L298.1,104.1 L300.5,104.4 L303.0,105.1 L305.4,106.1 L307.8,107.5 L310.3,109.1 L312.7,111.0 L315.1,113.2 L317.5,115.6 L320.0,118.3 L322.4,121.2 L324.8,124.3 L327.2,127.6 L329.7,131.1 L332.1,134.7 L334.5,138.4 L336.9,142.2 L339.4,146.0 L341.8,149.9 L344.2,153.7 L346.7,157.6 L349.1,161.4 L351.5,165.1 L353.9,168.7 L356.4,172.1 L358.8,175.4 L361.2,178.6 L363.6,181.5 L366.1,184.2 L368.5,186.7 L370.9,188.9 L373.3,190.8 L375.8,192.4 L378.2,193.8 L380.6,194.8 L383.1,195.5 L385.5,195.9 L387.9,196.0 L390.3,195.7 L392.8,195.1 L395.2,194.2 L397.6,193.0 L400.0,191.5 L402.5,189.7 L404.9,187.6 L407.3,185.2 L409.7,182.6 L412.2,179.8 L414.6,176.7 L417.0,173.5 L419.5,170.1 L421.9,166.6 L424.3,162.9 L426.7,159.1 L429.2,155.3 L431.6,151.5 L434.0,147.6 L436.4,143.7 L438.9,139.9 L441.3,136.2 L443.7,132.6 L446.2,129.0 L448.6,125.7 L451.0,122.5 L453.4,119.5 L455.9,116.7 L458.3,114.1 L460.7,111.8 L463.1,109.8 L465.6,108.1 L468.0,106.6 L470.4,105.5 L472.8,104.7 L475.3,104.2 L477.7,104.0 L480.1,104.1 L482.6,104.6 L485.0,105.4 L487.4,106.5 L489.8,107.9 L492.3,109.6 L494.7,111.6 L497.1,113.9 L499.5,116.4 L502.0,119.2 L504.4,122.2 L506.8,125.4 L509.2,128.7 L511.7,132.2 L514.1,135.8 L516.5,139.6 L519.0,143.4 L521.4,147.2 L523.8,151.1 L526.2,154.9 L528.7,158.8 L531.1,162.5 L533.5,166.2 L535.9,169.8 L538.4,173.2 L540.8,176.4 L543.2,179.5 L545.6,182.4 L548.1,185.0 L550.5,187.4 L552.9,189.5 L555.4,191.4 L557.8,192.9 L560.2,194.1 L562.6,195.1 L565.1,195.7 L567.5,196.0 L569.9,195.9 L572.3,195.6 L574.8,194.9 L577.2,193.9 L579.6,192.6 L582.1,191.0 L584.5,189.1 L586.9,186.9 L589.3,184.5 L591.8,181.8 L594.2,178.9 L596.6,175.8 L599.0,172.5 L601.5,169.0 L603.9,165.4 L606.3,161.7 L608.7,157.9 L611.2,154.1 L613.6,150.2 L616.0,146.4 L618.5,142.5 L620.9,138.7 L623.3,135.0 L625.7,131.4 L628.2,128.0 L630.6,124.7 L633.0,121.5 L635.4,118.6 L637.9,115.9 L640.3,113.4 L642.7,111.2 L645.1,109.2 L647.6,107.6 L650.0,106.3" fill="none" stroke="#6E9BCB" stroke-width="2.4" opacity="0.95"/>
  <path d="M70.0,149.9 L72.4,148.1 L74.9,147.9 L77.3,147.6 L79.7,145.2 L82.1,139.7 L84.6,132.5 L87.0,127.4 L89.4,125.7 L91.8,124.2 L94.3,121.1 L96.7,118.9 L99.1,118.9 L101.5,119.0 L104.0,118.1 L106.4,118.6 L108.8,122.2 L111.3,127.0 L113.7,130.8 L116.1,132.0 L118.5,130.2 L121.0,126.5 L123.4,122.5 L125.8,119.9 L128.2,121.4 L130.7,127.0 L133.1,132.0 L135.5,132.5 L137.9,131.5 L140.4,133.5 L142.8,138.0 L145.2,141.7 L147.7,142.9 L150.1,142.2 L152.5,141.9 L154.9,143.3 L157.4,145.4 L159.8,148.2 L162.2,152.2 L164.6,156.4 L167.1,160.3 L169.5,164.5 L171.9,167.5 L174.4,168.4 L176.8,169.7 L179.2,172.3 L181.6,174.2 L184.1,174.6 L186.5,173.8 L188.9,173.9 L191.3,177.7 L193.8,183.0 L196.2,185.3 L198.6,184.8 L201.0,183.9 L203.5,183.1 L205.9,181.7 L208.3,180.3 L210.8,180.9 L213.2,183.7 L215.6,186.4 L218.0,187.8 L220.5,188.7 L222.9,188.3 L225.3,184.7 L227.7,177.9 L230.2,172.1 L232.6,171.1 L235.0,173.2 L237.4,174.0 L239.9,173.0 L242.3,170.5 L244.7,164.4 L247.2,155.1 L249.6,147.2 L252.0,144.2 L254.4,144.1 L256.9,142.4 L259.3,137.8 L261.7,133.4 L264.1,131.6 L266.6,130.6 L269.0,128.9 L271.4,128.0 L273.8,128.0 L276.3,126.7 L278.7,122.7 L281.1,116.4 L283.6,110.8 L286.0,108.1 L288.4,108.0 L290.8,108.3 L293.3,107.9 L295.7,107.6 L298.1,109.2 L300.5,113.3 L303.0,118.7 L305.4,124.7 L307.8,130.3 L310.3,132.6 L312.7,130.2 L315.1,124.8 L317.5,119.8 L320.0,119.3 L322.4,124.3 L324.8,129.5 L327.2,131.8 L329.7,133.5 L332.1,136.0 L334.5,138.5 L336.9,141.3 L339.4,146.2 L341.8,152.2 L344.2,157.1 L346.7,161.0 L349.1,164.2 L351.5,166.0 L353.9,166.2 L356.4,166.4 L358.8,169.0 L361.2,174.4 L363.6,181.3 L366.1,188.4 L368.5,193.7 L370.9,195.4 L373.3,195.1 L375.8,194.8 L378.2,194.2 L380.6,193.0 L383.1,191.1 L385.5,189.0 L387.9,188.0 L390.3,188.0 L392.8,185.9 L395.2,181.1 L397.6,178.2 L400.0,179.8 L402.5,182.8 L404.9,183.5 L407.3,181.2 L409.7,178.0 L412.2,176.5 L414.6,176.7 L417.0,176.6 L419.5,174.1 L421.9,168.0 L424.3,159.9 L426.7,153.5 L429.2,150.7 L431.6,150.8 L434.0,151.3 L436.4,150.1 L438.9,146.9 L441.3,143.6 L443.7,141.6 L446.2,140.6 L448.6,137.9 L451.0,132.0 L453.4,126.5 L455.9,124.4 L458.3,122.5 L460.7,118.9 L463.1,117.3 L465.6,119.5 L468.0,122.3 L470.4,123.0 L472.8,120.8 L475.3,116.5 L477.7,113.8 L480.1,113.9 L482.6,115.0 L485.0,116.4 L487.4,118.9 L489.8,122.4 L492.3,124.8 L494.7,124.0 L497.1,121.8 L499.5,122.0 L502.0,124.7 L504.4,128.6 L506.8,132.3 L509.2,134.5 L511.7,136.2 L514.1,138.5 L516.5,140.1 L519.0,140.2 L521.4,140.6 L523.8,144.4 L526.2,151.9 L528.7,159.4 L531.1,162.4 L533.5,161.2 L535.9,160.6 L538.4,162.2 L540.8,163.9 L543.2,164.8 L545.6,166.8 L548.1,170.4 L550.5,174.5 L552.9,178.2 L555.4,180.3 L557.8,179.5 L560.2,176.3 L562.6,173.0 L565.1,173.3 L567.5,179.8 L569.9,189.0 L572.3,193.8 L574.8,192.9 L577.2,190.2 L579.6,188.6 L582.1,189.9 L584.5,193.1 L586.9,192.4 L589.3,186.5 L591.8,180.2 L594.2,177.1 L596.6,177.0 L599.0,178.0 L601.5,177.5 L603.9,175.1 L606.3,171.5 L608.7,165.9 L611.2,158.4 L613.6,152.3 L616.0,150.3 L618.5,150.7 L620.9,150.7 L623.3,148.3 L625.7,143.5 L628.2,137.6 L630.6,131.2 L633.0,124.2 L635.4,118.0 L637.9,115.4 L640.3,116.0 L642.7,116.7 L645.1,117.6 L647.6,119.4 L650.0,120.1" fill="none" stroke="#D2793F" stroke-width="1.6" opacity="0.9"/>
  <text x="70" y="40" fill="#6E9BCB" font-size="15" font-weight="600">Coherent response</text>
  <text x="70" y="60" fill="#98A2B3" font-size="13">the mean field — shows the pathways</text>
  <text x="650" y="40" fill="#D2793F" font-size="15" font-weight="600" text-anchor="end">Fluctuations</text>
  <text x="650" y="60" fill="#98A2B3" font-size="13" text-anchor="end">event to event — determine the pathways</text>
</svg>