<svg viewBox="0 0 720 320" xmlns="http://www.w3.org/2000/svg" font-family="'Source Sans 3',sans-serif">
  <line x1="70" y1="165" x2="650" y2="165" stroke="#28303F" stroke-width="1" stroke-dasharray="3 4"/>
  <path d="M70.0,143.8 L72.2,130.5 L74.5,131.0 L76.7,143.3 L79.0,136.1 L81.2,135.4 L83.4,134.3 L85.7,129.6 L87.9,129.8 L90.2,124.7 L92.4,120.2 L94.6,113.1 L96.9,114.2 L99.1,117.9 L101.4,117.0 L103.6,109.0 L105.8,105.4 L108.1,109.6 L110.3,111.5 L112.5,109.6 L114.8,97.2 L117.0,92.0 L119.3,95.9 L121.5,90.0 L123.7,81.4 L126.0,84.7 L128.2,89.1 L130.5,87.6 L132.7,93.3 L134.9,111.2 L137.2,115.4 L139.4,120.4 L141.7,119.4 L143.9,122.5 L146.1,120.2 L148.4,123.0 L150.6,121.9 L152.9,124.8 L155.1,138.2 L157.3,137.2 L159.6,143.9 L161.8,140.0 L164.1,147.9 L166.3,143.0 L168.5,135.8 L170.8,134.7 L173.0,140.9 L175.3,158.0 L177.5,169.7 L179.7,166.9 L182.0,159.2 L184.2,157.3 L186.4,163.2 L188.7,169.9 L190.9,180.3 L193.2,186.9 L195.4,190.5 L197.6,189.5 L199.9,182.6 L202.1,188.1 L204.4,195.6 L206.6,193.8 L208.8,197.9 L211.1,198.0 L213.3,197.3 L215.6,196.3 L217.8,198.1 L220.0,194.7 L222.3,194.2 L224.5,191.2 L226.8,183.6 L229.0,181.9 L231.2,182.5 L233.5,173.7 L235.7,163.2 L238.0,168.3 L240.2,180.8 L242.4,178.1 L244.7,174.2 L246.9,176.3 L249.2,171.0 L251.4,171.1 L253.6,168.2 L255.9,160.6 L258.1,158.9 L260.3,148.1 L262.6,136.9 L264.8,139.6 L267.1,143.7 L269.3,121.5 L271.5,125.1 L273.8,136.1 L276.0,131.2 L278.3,122.9 L280.5,110.6 L282.7,117.8 L285.0,126.7 L287.2,123.0 L289.5,120.3 L291.7,114.2 L293.9,112.5 L296.2,116.2 L298.4,112.1 L300.7,111.9 L302.9,101.6 L305.1,96.2 L307.4,105.1 L309.6,107.9 L311.9,109.1 L314.1,107.5 L316.3,100.4 L318.6,86.4 L320.8,86.3 L323.1,103.7 L325.3,108.1 L327.5,112.6 L329.8,99.8 L332.0,94.1 L334.2,115.4 L336.5,119.9 L338.7,122.1 L341.0,121.4 L343.2,123.2 L345.4,131.7 L347.7,131.6 L349.9,127.4 L352.2,130.9 L354.4,138.3 L356.6,150.4 L358.9,139.2 L361.1,127.8 L363.4,135.6 L365.6,155.4 L367.8,165.1 L370.1,160.1 L372.3,153.3 L374.6,149.8 L376.8,153.3 L379.0,164.5 L381.3,182.1 L383.5,173.7 L385.8,170.3 L388.0,170.3 L390.2,171.7 L392.5,179.1 L394.7,189.1 L396.9,191.5 L399.2,182.3 L401.4,176.4 L403.7,188.2 L405.9,192.6 L408.1,184.4 L410.4,190.8 L412.6,196.8 L414.9,193.8 L417.1,173.7 L419.3,160.7 L421.6,154.9 L423.8,162.4 L426.1,179.6 L428.3,183.6 L430.5,177.3 L432.8,172.7 L435.0,172.1 L437.3,176.0 L439.5,172.4 L441.7,159.4 L444.0,156.7 L446.2,158.6 L448.5,160.8 L450.7,163.5 L452.9,151.2 L455.2,142.9 L457.4,142.4 L459.7,144.3 L461.9,147.5 L464.1,139.4 L466.4,134.6 L468.6,134.4 L470.8,134.5 L473.1,129.4 L475.3,129.5 L477.6,122.3 L479.8,120.2 L482.0,113.4 L484.3,107.2 L486.5,107.5 L488.8,109.4 L491.0,108.7 L493.2,101.0 L495.5,95.5 L497.7,104.2 L500.0,107.6 L502.2,111.0 L504.4,99.2 L506.7,96.4 L508.9,102.8 L511.2,111.0 L513.4,110.2 L515.6,112.7 L517.9,112.7 L520.1,109.4 L522.4,116.1 L524.6,106.2 L526.8,106.7 L529.1,109.7 L531.3,112.1 L533.6,118.2 L535.8,125.2 L538.0,130.2 L540.3,135.8 L542.5,138.6 L544.7,141.0 L547.0,138.5 L549.2,141.5 L551.5,144.0 L553.7,132.1 L555.9,139.6 L558.2,154.3 L560.4,162.8 L562.7,166.5 L564.9,164.8 L567.1,158.5 L569.4,152.7 L571.6,158.2 L573.9,161.5 L576.1,158.0 L578.3,153.8 L580.6,157.7 L582.8,177.1 L585.1,182.4 L587.3,172.0 L589.5,177.3 L591.8,187.9 L594.0,190.3 L596.3,180.6 L598.5,189.9 L600.7,199.3 L603.0,198.0 L605.2,195.9 L607.5,197.4 L609.7,182.8 L611.9,174.9 L614.2,180.3 L616.4,187.6 L618.6,189.0 L620.9,172.5 L623.1,166.5 L625.4,171.6 L627.6,169.1 L629.8,161.5 L632.1,158.2 L634.3,160.2 L636.6,160.9 L638.8,149.0 L641.0,138.0 L643.3,144.5 L645.5,152.8 L647.8,146.1 L650.0,139.0 L650.0,191.0 L647.8,190.3 L645.5,190.0 L643.3,204.5 L641.0,217.3 L638.8,212.3 L636.6,206.3 L634.3,212.7 L632.1,220.2 L629.8,222.1 L627.6,219.4 L625.4,221.6 L623.1,231.0 L620.9,228.8 L618.6,216.0 L616.4,220.5 L614.2,230.5 L611.9,238.3 L609.7,232.2 L607.5,219.0 L605.2,221.5 L603.0,219.9 L600.7,218.7 L598.5,227.6 L596.3,236.1 L594.0,224.9 L591.8,225.6 L589.5,233.9 L587.3,236.6 L585.1,223.1 L582.8,224.9 L580.6,240.4 L578.3,240.1 L576.1,231.3 L573.9,223.0 L571.6,221.1 L569.4,221.2 L567.1,209.7 L564.9,197.5 L562.7,189.7 L560.4,187.3 L558.2,189.5 L555.9,197.9 L553.7,199.0 L551.5,180.7 L549.2,176.8 L547.0,173.5 L544.7,164.7 L542.5,161.1 L540.3,157.9 L538.0,157.8 L535.8,157.3 L533.6,159.0 L531.3,160.1 L529.1,157.8 L526.8,156.6 L524.6,153.0 L522.4,139.5 L520.1,143.0 L517.9,136.9 L515.6,134.5 L513.4,135.1 L511.2,132.8 L508.9,139.9 L506.7,145.7 L504.4,142.8 L502.2,131.4 L500.0,135.5 L497.7,140.2 L495.5,150.7 L493.2,147.3 L491.0,142.3 L488.8,144.6 L486.5,149.9 L484.3,154.0 L482.0,152.0 L479.8,149.7 L477.6,152.5 L475.3,150.3 L473.1,155.8 L470.8,156.3 L468.6,162.3 L466.4,168.1 L464.1,169.4 L461.9,167.6 L459.7,177.1 L457.4,185.5 L455.2,191.3 L452.9,189.5 L450.7,183.4 L448.5,192.4 L446.2,200.7 L444.0,208.6 L441.7,211.7 L439.5,204.2 L437.3,205.9 L435.0,214.8 L432.8,218.9 L430.5,218.8 L428.3,216.5 L426.1,224.2 L423.8,244.7 L421.6,255.1 L419.3,251.7 L417.1,240.7 L414.9,222.2 L412.6,220.3 L410.4,227.1 L408.1,233.6 L405.9,225.1 L403.7,228.8 L401.4,239.4 L399.2,231.8 L396.9,220.6 L394.7,220.4 L392.5,227.5 L390.2,231.5 L388.0,229.2 L385.8,225.0 L383.5,217.2 L381.3,204.0 L379.0,216.6 L376.8,222.4 L374.6,220.3 L372.3,210.9 L370.1,198.2 L367.8,187.1 L365.6,190.6 L363.4,204.0 L361.1,205.4 L358.9,187.6 L356.6,170.0 L354.4,175.8 L352.2,176.9 L349.9,174.3 L347.7,164.1 L345.4,158.2 L343.2,161.1 L341.0,157.5 L338.7,151.8 L336.5,149.2 L334.2,149.3 L332.0,166.5 L329.8,157.0 L327.5,140.8 L325.3,142.4 L323.1,144.2 L320.8,159.6 L318.6,157.8 L316.3,142.6 L314.1,134.8 L311.9,132.9 L309.6,134.2 L307.4,137.7 L305.1,147.8 L302.9,144.0 L300.7,135.7 L298.4,137.9 L296.2,136.8 L293.9,143.7 L291.7,145.7 L289.5,143.7 L287.2,145.3 L285.0,146.3 L282.7,160.4 L280.5,172.8 L278.3,166.1 L276.0,163.5 L273.8,164.6 L271.5,181.7 L269.3,191.6 L267.1,175.7 L264.8,186.1 L262.6,195.2 L260.3,190.5 L258.1,186.0 L255.9,190.6 L253.6,189.1 L251.4,192.2 L249.2,198.1 L246.9,198.4 L244.7,205.9 L242.4,207.2 L240.2,209.4 L238.0,226.3 L235.7,235.6 L233.5,228.9 L231.2,223.5 L229.0,227.1 L226.8,228.1 L224.5,222.7 L222.3,221.3 L220.0,222.1 L217.8,219.5 L215.6,221.7 L213.3,220.6 L211.1,219.3 L208.8,218.4 L206.6,220.9 L204.4,217.2 L202.1,222.3 L199.9,225.0 L197.6,214.9 L195.4,210.3 L193.2,209.9 L190.9,212.1 L188.7,217.8 L186.4,219.5 L184.2,220.2 L182.0,212.8 L179.7,199.4 L177.5,190.6 L175.3,196.2 L173.0,207.2 L170.8,207.0 L168.5,199.5 L166.3,185.9 L164.1,174.6 L161.8,176.2 L159.6,166.0 L157.3,166.5 L155.1,159.5 L152.9,167.0 L150.6,164.2 L148.4,157.7 L146.1,155.3 L143.9,148.2 L141.7,146.7 L139.4,141.4 L137.2,142.6 L134.9,143.3 L132.7,158.1 L130.5,161.2 L128.2,157.4 L126.0,160.0 L123.7,162.0 L121.5,152.5 L119.3,146.1 L117.0,150.1 L114.8,145.3 L112.5,133.9 L110.3,133.5 L108.1,137.3 L105.8,143.8 L103.6,142.9 L101.4,138.0 L99.1,140.7 L96.9,148.3 L94.6,153.7 L92.4,151.2 L90.2,151.7 L87.9,151.8 L85.7,157.5 L83.4,158.5 L81.2,163.3 L79.0,168.7 L76.7,167.6 L74.5,186.2 L72.2,193.1 L70.0,186.2 Z" fill="#D2793F" opacity="0.22"/>
  <path d="M70.0,165.0 L72.2,161.8 L74.5,158.6 L76.7,155.5 L79.0,152.4 L81.2,149.3 L83.4,146.4 L85.7,143.5 L87.9,140.8 L90.2,138.2 L92.4,135.7 L94.6,133.4 L96.9,131.3 L99.1,129.3 L101.4,127.5 L103.6,126.0 L105.8,124.6 L108.1,123.4 L110.3,122.5 L112.5,121.8 L114.8,121.3 L117.0,121.0 L119.3,121.0 L121.5,121.2 L123.7,121.7 L126.0,122.4 L128.2,123.3 L130.5,124.4 L132.7,125.7 L134.9,127.3 L137.2,129.0 L139.4,130.9 L141.7,133.0 L143.9,135.3 L146.1,137.8 L148.4,140.4 L150.6,143.1 L152.9,145.9 L155.1,148.8 L157.3,151.9 L159.6,154.9 L161.8,158.1 L164.1,161.3 L166.3,164.5 L168.5,167.7 L170.8,170.9 L173.0,174.0 L175.3,177.1 L177.5,180.2 L179.7,183.1 L182.0,186.0 L184.2,188.7 L186.4,191.4 L188.7,193.9 L190.9,196.2 L193.2,198.4 L195.4,200.4 L197.6,202.2 L199.9,203.8 L202.1,205.2 L204.4,206.4 L206.6,207.4 L208.8,208.1 L211.1,208.6 L213.3,208.9 L215.6,209.0 L217.8,208.8 L220.0,208.4 L222.3,207.8 L224.5,206.9 L226.8,205.8 L229.0,204.5 L231.2,203.0 L233.5,201.3 L235.7,199.4 L238.0,197.3 L240.2,195.1 L242.4,192.6 L244.7,190.1 L246.9,187.4 L249.2,184.6 L251.4,181.7 L253.6,178.6 L255.9,175.6 L258.1,172.4 L260.3,169.3 L262.6,166.1 L264.8,162.9 L267.1,159.7 L269.3,156.5 L271.5,153.4 L273.8,150.3 L276.0,147.4 L278.3,144.5 L280.5,141.7 L282.7,139.1 L285.0,136.5 L287.2,134.2 L289.5,132.0 L291.7,129.9 L293.9,128.1 L296.2,126.5 L298.4,125.0 L300.7,123.8 L302.9,122.8 L305.1,122.0 L307.4,121.4 L309.6,121.1 L311.9,121.0 L314.1,121.1 L316.3,121.5 L318.6,122.1 L320.8,122.9 L323.1,124.0 L325.3,125.2 L327.5,126.7 L329.8,128.4 L332.0,130.3 L334.2,132.3 L336.5,134.6 L338.7,136.9 L341.0,139.5 L343.2,142.2 L345.4,145.0 L347.7,147.9 L349.9,150.8 L352.2,153.9 L354.4,157.0 L356.6,160.2 L358.9,163.4 L361.1,166.6 L363.4,169.8 L365.6,173.0 L367.8,176.1 L370.1,179.2 L372.3,182.1 L374.6,185.0 L376.8,187.8 L379.0,190.5 L381.3,193.1 L383.5,195.4 L385.8,197.7 L388.0,199.7 L390.2,201.6 L392.5,203.3 L394.7,204.8 L396.9,206.0 L399.2,207.1 L401.4,207.9 L403.7,208.5 L405.9,208.9 L408.1,209.0 L410.4,208.9 L412.6,208.6 L414.9,208.0 L417.1,207.2 L419.3,206.2 L421.6,205.0 L423.8,203.5 L426.1,201.9 L428.3,200.1 L430.5,198.0 L432.8,195.8 L435.0,193.5 L437.3,190.9 L439.5,188.3 L441.7,185.5 L444.0,182.6 L446.2,179.7 L448.5,176.6 L450.7,173.5 L452.9,170.3 L455.2,167.1 L457.4,163.9 L459.7,160.7 L461.9,157.6 L464.1,154.4 L466.4,151.4 L468.6,148.3 L470.8,145.4 L473.1,142.6 L475.3,139.9 L477.6,137.4 L479.8,134.9 L482.0,132.7 L484.3,130.6 L486.5,128.7 L488.8,127.0 L491.0,125.5 L493.2,124.2 L495.5,123.1 L497.7,122.2 L500.0,121.6 L502.2,121.2 L504.4,121.0 L506.7,121.1 L508.9,121.4 L511.2,121.9 L513.4,122.6 L515.6,123.6 L517.9,124.8 L520.1,126.2 L522.4,127.8 L524.6,129.6 L526.8,131.6 L529.1,133.8 L531.3,136.1 L533.6,138.6 L535.8,141.3 L538.0,144.0 L540.3,146.9 L542.5,149.8 L544.7,152.9 L547.0,156.0 L549.2,159.1 L551.5,162.3 L553.7,165.5 L555.9,168.7 L558.2,171.9 L560.4,175.1 L562.7,178.1 L564.9,181.2 L567.1,184.1 L569.4,186.9 L571.6,189.6 L573.9,192.2 L576.1,194.7 L578.3,197.0 L580.6,199.1 L582.8,201.0 L585.1,202.7 L587.3,204.3 L589.5,205.6 L591.8,206.7 L594.0,207.6 L596.3,208.3 L598.5,208.8 L600.7,209.0 L603.0,209.0 L605.2,208.7 L607.5,208.2 L609.7,207.5 L611.9,206.6 L614.2,205.4 L616.4,204.0 L618.6,202.5 L620.9,200.7 L623.1,198.7 L625.4,196.6 L627.6,194.3 L629.8,191.8 L632.1,189.2 L634.3,186.5 L636.6,183.6 L638.8,180.7 L641.0,177.6 L643.3,174.5 L645.5,171.4 L647.8,168.2 L650.0,165.0" fill="none" stroke="#6E9BCB" stroke-width="2.6" opacity="0.95"/>
  <path d="M70.0,153.5 L72.2,140.2 L74.5,140.7 L76.7,153.0 L79.0,159.0 L81.2,153.6 L83.4,144.0 L85.7,139.3 L87.9,142.1 L90.2,142.0 L92.4,129.9 L94.6,122.8 L96.9,123.9 L99.1,127.6 L101.4,126.7 L103.6,118.6 L105.8,115.1 L108.1,119.3 L110.3,121.1 L112.5,124.3 L114.8,135.7 L117.0,140.4 L119.3,136.5 L121.5,142.8 L123.7,152.3 L126.0,150.3 L128.2,147.7 L130.5,151.5 L132.7,148.5 L134.9,133.6 L137.2,125.1 L139.4,131.7 L141.7,137.0 L143.9,132.2 L146.1,129.9 L148.4,132.7 L150.6,131.6 L152.9,134.5 L155.1,147.9 L157.3,156.8 L159.6,153.6 L161.8,149.7 L164.1,157.6 L166.3,176.2 L168.5,189.8 L170.8,197.4 L173.0,197.5 L175.3,186.5 L177.5,179.4 L179.7,176.6 L182.0,168.8 L184.2,167.0 L186.4,172.9 L188.7,179.6 L190.9,190.0 L193.2,200.2 L195.4,200.1 L197.6,205.2 L199.9,215.3 L202.1,212.6 L204.4,205.2 L206.6,203.5 L208.8,207.5 L211.1,209.6 L213.3,210.9 L215.6,212.0 L217.8,207.8 L220.0,204.4 L222.3,203.9 L224.5,200.8 L226.8,193.3 L229.0,191.6 L231.2,192.2 L233.5,183.3 L235.7,172.9 L238.0,178.0 L240.2,190.4 L242.4,187.8 L244.7,183.9 L246.9,188.8 L249.2,188.4 L251.4,182.5 L253.6,179.4 L255.9,170.2 L258.1,168.5 L260.3,180.8 L262.6,185.6 L264.8,176.4 L267.1,153.4 L269.3,131.2 L271.5,134.7 L273.8,154.9 L276.0,153.8 L278.3,132.6 L280.5,120.3 L282.7,127.4 L285.0,136.7 L287.2,135.6 L289.5,134.0 L291.7,136.0 L293.9,134.0 L296.2,125.8 L298.4,121.8 L300.7,126.0 L302.9,134.3 L305.1,138.1 L307.4,128.0 L309.6,117.6 L311.9,123.2 L314.1,125.1 L316.3,110.0 L318.6,96.1 L320.8,96.0 L323.1,113.4 L325.3,132.7 L327.5,131.2 L329.8,109.5 L332.0,103.8 L334.2,125.1 L336.5,139.5 L338.7,142.1 L341.0,147.8 L343.2,151.4 L345.4,148.5 L347.7,141.3 L349.9,137.1 L352.2,140.6 L354.4,148.0 L356.6,160.0 L358.9,177.9 L361.1,195.7 L363.4,194.3 L365.6,180.9 L367.8,174.8 L370.1,169.8 L372.3,163.0 L374.6,159.5 L376.8,163.0 L379.0,174.2 L381.3,191.8 L383.5,207.5 L385.8,215.3 L388.0,219.5 L390.2,221.9 L392.5,217.8 L394.7,210.8 L396.9,210.9 L399.2,222.1 L401.4,229.7 L403.7,219.1 L405.9,202.3 L408.1,194.1 L410.4,200.4 L412.6,210.6 L414.9,203.5 L417.1,183.4 L419.3,170.4 L421.6,164.5 L423.8,172.1 L426.1,189.3 L428.3,193.2 L430.5,187.0 L432.8,182.4 L435.0,181.8 L437.3,185.7 L439.5,194.6 L441.7,202.0 L444.0,198.9 L446.2,191.0 L448.5,182.7 L450.7,173.2 L452.9,160.8 L455.2,152.6 L457.4,152.0 L459.7,154.0 L461.9,157.2 L464.1,159.8 L466.4,158.5 L468.6,152.7 L470.8,144.2 L473.1,139.1 L475.3,140.6 L477.6,142.8 L479.8,140.0 L482.0,142.3 L484.3,144.3 L486.5,140.2 L488.8,134.9 L491.0,132.6 L493.2,137.6 L495.5,141.0 L497.7,130.5 L500.0,117.3 L502.2,121.7 L504.4,133.1 L506.7,136.0 L508.9,130.2 L511.2,123.1 L513.4,125.4 L515.6,124.8 L517.9,127.2 L520.1,133.3 L522.4,125.8 L524.6,115.9 L526.8,116.4 L529.1,119.4 L531.3,121.8 L533.6,127.9 L535.8,134.9 L538.0,139.9 L540.3,145.5 L542.5,151.4 L544.7,155.1 L547.0,163.8 L549.2,167.1 L551.5,153.6 L553.7,141.8 L555.9,149.2 L558.2,164.0 L560.4,172.4 L562.7,180.0 L564.9,187.8 L567.1,200.0 L569.4,211.5 L571.6,211.4 L573.9,213.3 L576.1,221.7 L578.3,230.4 L580.6,230.7 L582.8,215.3 L585.1,192.1 L587.3,181.6 L589.5,187.0 L591.8,197.5 L594.0,215.3 L596.3,226.4 L598.5,218.0 L600.7,209.0 L603.0,207.7 L605.2,205.6 L607.5,209.3 L609.7,222.5 L611.9,228.6 L614.2,220.9 L616.4,210.8 L618.6,198.7 L620.9,182.2 L623.1,176.2 L625.4,181.2 L627.6,178.8 L629.8,171.2 L632.1,167.8 L634.3,169.9 L636.6,170.6 L638.8,158.7 L641.0,147.6 L643.3,154.2 L645.5,162.5 L647.8,155.8 L650.0,148.7" fill="none" stroke="#D2793F" stroke-width="2.1" opacity="0.98"/>
  <text x="70" y="34" fill="#6E9BCB" font-size="15" font-weight="700">E-field mean</text>
  <text x="70" y="53" fill="#98A2B3" font-size="12.5">the coherent field — reveals the pathways</text>
  <text x="650" y="34" fill="#D2793F" font-size="15" font-weight="700" text-anchor="end">Variance</text>
  <text x="650" y="53" fill="#98A2B3" font-size="12.5" text-anchor="end">event to event — determines the pathways</text>
</svg>