<svg viewBox="0 0 720 400" xmlns="http://www.w3.org/2000/svg" font-family="'Source Sans 3',sans-serif">
  <path d="M60.0,220.3 L62.0,220.5 L64.0,220.8 L66.0,221.1 L68.0,221.4 L70.0,221.7 L72.0,222.1 L74.0,222.5 L76.1,222.9 L78.1,223.3 L80.1,223.8 L82.1,224.3 L84.1,224.8 L86.1,225.3 L88.1,225.9 L90.1,226.5 L92.1,227.1 L94.1,227.8 L96.1,228.4 L98.1,229.2 L100.1,229.9 L102.1,230.7 L104.1,231.5 L106.2,232.3 L108.2,233.2 L110.2,234.1 L112.2,235.1 L114.2,236.0 L116.2,237.0 L118.2,238.1 L120.2,239.1 L122.2,240.2 L124.2,241.3 L126.2,242.5 L128.2,243.6 L130.2,244.9 L132.2,246.1 L134.2,247.3 L136.3,248.6 L138.3,249.9 L140.3,251.3 L142.3,252.6 L144.3,254.0 L146.3,255.4 L148.3,256.8 L150.3,258.2 L152.3,259.6 L154.3,261.1 L156.3,262.5 L158.3,264.0 L160.3,265.4 L162.3,266.9 L164.3,268.4 L166.4,269.9 L168.4,271.3 L170.4,272.8 L172.4,274.2 L174.4,275.7 L176.4,277.1 L178.4,278.5 L180.4,279.9 L182.4,281.3 L184.4,282.7 L186.4,284.0 L188.4,285.3 L190.4,286.6 L192.4,287.8 L194.4,289.0 L196.5,290.2 L198.5,291.3 L200.5,292.4 L202.5,293.4 L204.5,294.4 L206.5,295.4 L208.5,296.2 L210.5,297.1 L212.5,297.9 L214.5,298.6 L216.5,299.2 L218.5,299.8 L220.5,300.4 L222.5,300.9 L224.5,301.3 L226.6,301.6 L228.6,301.9 L230.6,302.1 L232.6,302.2 L234.6,302.3 L236.6,302.3 L238.6,302.2 L240.6,302.1 L242.6,301.9 L244.6,301.6 L246.6,301.2 L248.6,300.8 L250.6,300.3 L252.6,299.8 L254.6,299.1 L256.7,298.5 L258.7,297.7 L260.7,296.9 L262.7,296.0 L264.7,295.0 L266.7,294.0 L268.7,293.0 L270.7,291.8 L272.7,290.7 L274.7,289.4 L276.7,288.1 L278.7,286.8 L280.7,285.4 L282.7,284.0 L284.7,282.6 L286.8,281.1 L288.8,279.5 L290.8,278.0 L292.8,276.4 L294.8,274.7 L296.8,273.1 L298.8,271.4 L300.8,269.7 L302.8,268.0 L304.8,266.2 L306.8,264.5 L308.8,262.7 L310.8,261.0 L312.8,259.2 L314.8,257.4 L316.9,255.6 L318.9,253.8 L320.9,252.0 L322.9,250.3 L324.9,248.5 L326.9,246.7 L328.9,245.0 L330.9,243.3 L332.9,241.5 L334.9,239.8 L336.9,238.1 L338.9,236.5 L340.9,234.8 L342.9,233.2 L344.9,231.6 L347.0,230.0 L349.0,228.5 L351.0,227.0 L353.0,225.5 L355.0,224.0 L357.0,222.5 L359.0,221.1 L361.0,219.7 L363.0,218.4 L365.0,217.1 L367.0,215.8 L369.0,214.5 L371.0,213.3 L373.0,212.1 L375.1,210.9 L377.1,209.8 L379.1,208.7 L381.1,207.6 L383.1,206.6 L385.1,205.6 L387.1,204.6 L389.1,203.7 L391.1,202.7 L393.1,201.8 L395.1,201.0 L397.1,200.1 L399.1,199.3 L401.1,198.6 L403.1,197.8 L405.2,197.1 L407.2,196.4 L409.2,195.7 L411.2,195.0 L413.2,194.4 L415.2,193.8 L417.2,193.2 L419.2,192.6 L421.2,192.1 L423.2,191.6 L425.2,191.1 L427.2,190.6 L429.2,190.1 L431.2,189.6 L433.2,189.2 L435.3,188.8 L437.3,188.4 L439.3,188.0 L441.3,187.6 L443.3,187.2 L445.3,186.9 L447.3,186.5 L449.3,186.2 L451.3,185.9 L453.3,185.6 L455.3,185.3 L457.3,185.0 L459.3,184.7 L461.3,184.4 L463.3,184.1 L465.4,183.9 L467.4,183.6 L469.4,183.4 L471.4,183.1 L473.4,182.9 L475.4,182.7 L477.4,182.4 L479.4,182.2 L481.4,182.0 L483.4,181.8 L485.4,181.6 L487.4,181.4 L489.4,181.2 L491.4,181.0 L493.4,180.8 L495.5,180.6 L497.5,180.4 L499.5,180.2 L501.5,180.1 L503.5,179.9 L505.5,179.7 L507.5,179.5 L509.5,179.3 L511.5,179.2 L513.5,179.0 L515.5,178.8 L517.5,178.7 L519.5,178.5 L521.5,178.3 L523.5,178.2 L525.6,178.0 L527.6,177.8 L529.6,177.7 L531.6,177.5 L533.6,177.3 L535.6,177.2 L537.6,177.0 L539.6,176.9 L541.6,176.7 L543.6,176.5 L545.6,176.4 L547.6,176.2 L549.6,176.1 L551.6,175.9 L553.6,175.8 L555.7,175.6 L557.7,175.4 L559.7,175.3 L561.7,175.1 L563.7,175.0 L565.7,174.8 L567.7,174.7 L569.7,174.5 L571.7,174.3 L573.7,174.2 L575.7,174.0 L577.7,173.9 L579.7,173.7 L581.7,173.6 L583.7,173.4 L585.8,173.2 L587.8,173.1 L589.8,172.9 L591.8,172.8 L593.8,172.6 L595.8,172.5 L597.8,172.3 L599.8,172.2 L601.8,172.0 L603.8,171.8 L605.8,171.7 L607.8,171.5 L609.8,171.4 L611.8,171.2 L613.8,171.1 L615.9,170.9 L617.9,170.8 L619.9,170.6 L621.9,170.5 L623.9,170.3 L625.9,170.1 L627.9,170.0 L629.9,169.8 L631.9,169.7 L633.9,169.5 L635.9,169.4 L637.9,169.2 L639.9,169.1 L641.9,168.9 L643.9,168.7 L646.0,168.6 L648.0,168.4 L650.0,168.3 L652.0,168.1 L654.0,168.0 L656.0,167.8 L658.0,167.7 L660.0,167.5" fill="none" stroke="#5b6b83" stroke-width="2.2" opacity="0.9"/>
  <path d="M60.0,209.3 L62.0,209.3 L64.0,209.4 L66.0,209.5 L68.0,209.5 L70.0,209.6 L72.0,209.7 L74.0,209.7 L76.1,209.8 L78.1,209.8 L80.1,209.9 L82.1,210.0 L84.1,210.0 L86.1,210.1 L88.1,210.2 L90.1,210.2 L92.1,210.3 L94.1,210.3 L96.1,210.4 L98.1,210.5 L100.1,210.5 L102.1,210.6 L104.1,210.7 L106.2,210.7 L108.2,210.8 L110.2,210.9 L112.2,210.9 L114.2,211.0 L116.2,211.0 L118.2,211.1 L120.2,211.2 L122.2,211.2 L124.2,211.3 L126.2,211.4 L128.2,211.4 L130.2,211.5 L132.2,211.6 L134.2,211.6 L136.3,211.7 L138.3,211.8 L140.3,211.8 L142.3,211.9 L144.3,212.0 L146.3,212.0 L148.3,212.1 L150.3,212.2 L152.3,212.3 L154.3,212.3 L156.3,212.4 L158.3,212.5 L160.3,212.5 L162.3,212.6 L164.3,212.7 L166.4,212.8 L168.4,212.9 L170.4,212.9 L172.4,213.0 L174.4,213.1 L176.4,213.2 L178.4,213.3 L180.4,213.4 L182.4,213.5 L184.4,213.6 L186.4,213.7 L188.4,213.8 L190.4,213.9 L192.4,214.0 L194.4,214.1 L196.5,214.2 L198.5,214.3 L200.5,214.4 L202.5,214.5 L204.5,214.7 L206.5,214.8 L208.5,214.9 L210.5,215.1 L212.5,215.2 L214.5,215.4 L216.5,215.5 L218.5,215.7 L220.5,215.8 L222.5,216.0 L224.5,216.2 L226.6,216.4 L228.6,216.6 L230.6,216.8 L232.6,217.0 L234.6,217.2 L236.6,217.5 L238.6,217.7 L240.6,217.9 L242.6,218.2 L244.6,218.5 L246.6,218.8 L248.6,219.1 L250.6,219.4 L252.6,219.7 L254.6,220.0 L256.7,220.4 L258.7,220.7 L260.7,221.1 L262.7,221.5 L264.7,221.9 L266.7,222.4 L268.7,222.8 L270.7,223.3 L272.7,223.8 L274.7,224.3 L276.7,224.8 L278.7,225.3 L280.7,225.9 L282.7,226.5 L284.7,227.1 L286.8,227.7 L288.8,228.3 L290.8,229.0 L292.8,229.7 L294.8,230.4 L296.8,231.2 L298.8,231.9 L300.8,232.7 L302.8,233.6 L304.8,234.4 L306.8,235.3 L308.8,236.2 L310.8,237.1 L312.8,238.1 L314.8,239.0 L316.9,240.0 L318.9,241.1 L320.9,242.1 L322.9,243.2 L324.9,244.4 L326.9,245.5 L328.9,246.7 L330.9,247.9 L332.9,249.1 L334.9,250.4 L336.9,251.6 L338.9,253.0 L340.9,254.3 L342.9,255.7 L344.9,257.0 L347.0,258.5 L349.0,259.9 L351.0,261.3 L353.0,262.8 L355.0,264.3 L357.0,265.8 L359.0,267.4 L361.0,268.9 L363.0,270.5 L365.0,272.1 L367.0,273.7 L369.0,275.3 L371.0,276.9 L373.0,278.5 L375.1,280.2 L377.1,281.8 L379.1,283.5 L381.1,285.2 L383.1,286.8 L385.1,288.5 L387.1,290.1 L389.1,291.8 L391.1,293.4 L393.1,295.1 L395.1,296.7 L397.1,298.3 L399.1,299.9 L401.1,301.5 L403.1,303.1 L405.2,304.7 L407.2,306.2 L409.2,307.7 L411.2,309.2 L413.2,310.7 L415.2,312.1 L417.2,313.5 L419.2,314.8 L421.2,316.2 L423.2,317.5 L425.2,318.7 L427.2,319.9 L429.2,321.1 L431.2,322.2 L433.2,323.3 L435.3,324.3 L437.3,325.3 L439.3,326.2 L441.3,327.1 L443.3,327.9 L445.3,328.7 L447.3,329.4 L449.3,330.0 L451.3,330.0 L453.3,330.0 L455.3,330.0 L457.3,330.0 L459.3,330.0 L461.3,330.0 L463.3,330.0 L465.4,330.0 L467.4,330.0 L469.4,330.0 L471.4,330.0 L473.4,330.0 L475.4,330.0 L477.4,330.0 L479.4,330.0 L481.4,330.0 L483.4,330.0 L485.4,330.0 L487.4,330.0 L489.4,330.0 L491.4,329.9 L493.4,329.2 L495.5,328.5 L497.5,327.7 L499.5,326.9 L501.5,326.0 L503.5,325.1 L505.5,324.1 L507.5,323.1 L509.5,322.1 L511.5,321.0 L513.5,319.8 L515.5,318.6 L517.5,317.4 L519.5,316.2 L521.5,314.9 L523.5,313.6 L525.6,312.2 L527.6,310.9 L529.6,309.5 L531.6,308.0 L533.6,306.6 L535.6,305.1 L537.6,303.7 L539.6,302.2 L541.6,300.7 L543.6,299.2 L545.6,297.6 L547.6,296.1 L549.6,294.6 L551.6,293.1 L553.6,291.5 L555.7,290.0 L557.7,288.5 L559.7,286.9 L561.7,285.4 L563.7,283.9 L565.7,282.4 L567.7,280.9 L569.7,279.4 L571.7,277.9 L573.7,276.5 L575.7,275.0 L577.7,273.6 L579.7,272.2 L581.7,270.8 L583.7,269.4 L585.8,268.1 L587.8,266.8 L589.8,265.5 L591.8,264.2 L593.8,262.9 L595.8,261.7 L597.8,260.5 L599.8,259.3 L601.8,258.2 L603.8,257.1 L605.8,256.0 L607.8,254.9 L609.8,253.9 L611.8,252.9 L613.8,251.9 L615.9,250.9 L617.9,250.0 L619.9,249.1 L621.9,248.2 L623.9,247.4 L625.9,246.5 L627.9,245.7 L629.9,245.0 L631.9,244.2 L633.9,243.5 L635.9,242.8 L637.9,242.2 L639.9,241.5 L641.9,240.9 L643.9,240.3 L646.0,239.8 L648.0,239.2 L650.0,238.7 L652.0,238.2 L654.0,237.8 L656.0,237.3 L658.0,236.9 L660.0,236.5" fill="none" stroke="#5b6b83" stroke-width="2.2" opacity="0.9"/>
  <line x1="132.2" y1="246.1" x2="143.1" y2="253.2" stroke="#6E9BCB" stroke-width="2.4"/><polygon points="143.1,253.2 135.7,252.7 139.7,246.6" fill="#6E9BCB"/><line x1="180.4" y1="279.9" x2="191.3" y2="287.1" stroke="#6E9BCB" stroke-width="2.4"/><polygon points="191.3,287.1 183.8,286.5 187.8,280.5" fill="#6E9BCB"/><line x1="539.6" y1="302.2" x2="550.0" y2="294.3" stroke="#6E9BCB" stroke-width="2.4"/><polygon points="550.0,294.3 547.0,301.2 542.6,295.4" fill="#6E9BCB"/><line x1="587.8" y1="266.8" x2="598.8" y2="259.9" stroke="#6E9BCB" stroke-width="2.4"/><polygon points="598.8,259.9 595.2,266.5 591.4,260.3" fill="#6E9BCB"/>
  <path d="M326.9,246.7 C 300.9,246.1 352.9,246.1 326.9,245.5"
      fill="none" stroke="#E8C15A" stroke-width="2.4" stroke-dasharray="1 5" stroke-linecap="round"/><polygon points="326.9,247.5 322.9,238.5 330.9,238.5" fill="#E8C15A"/><path d="M366.9,267.4 C 396.9,215.5 386.9,256.7 392.9,213.3"
      fill="none" stroke="#E8C15A" stroke-width="1.8" stroke-dasharray="1 5" opacity="0.5" stroke-linecap="round"/>
  <text x="72" y="207" fill="#8794a8" font-size="12">excited surface</text>
  <text x="372" y="327" fill="#8794a8" font-size="12">ground surface</text>
  <text x="60" y="30" fill="#6E9BCB" font-size="14.5" font-weight="700">Along the gradient</text>
  <text x="60" y="49" fill="#98A2B3" font-size="12">coherent motion — reveals the pathways</text>
  <text x="660" y="30" fill="#E8C15A" font-size="14.5" font-weight="700" text-anchor="end">Hops between surfaces</text>
  <text x="660" y="49" fill="#98A2B3" font-size="12" text-anchor="end">incoherent — determines the pathways</text>
</svg>